<?xml version="1.0" encoding="UTF-8"?>
<svg xmlns="http://www.w3.org/2000/svg" viewBox="0 0 256 256">
  <g>
    <polygon points="256,128 192,238.85125168440814 64.00000000000003,238.85125168440817 0,128.00000000000003 63.99999999999994,17.148748315591874 191.99999999999991,17.148748315591803" fill="hsl(235.3846153846154, 70%, 50%)" stroke="black" stroke-width="2"/>
    <polygon points="245.27272727272728,128 186.63636363636365,229.561160989266 69.36363636363639,229.561160989266 10.72727272727272,128.00000000000003 69.36363636363632,26.43883901073403 186.63636363636357,26.438839010733957" fill="none" stroke="black" stroke-width="2"/>
    <polygon points="245.27272727272728,128 186.63636363636365,229.561160989266 69.36363636363639,229.561160989266 10.72727272727272,128.00000000000003 69.36363636363632,26.43883901073403 186.63636363636357,26.438839010733957" fill="hsl(69.23076923076923, 80%, 60%)" stroke="black" stroke-width="2"/>
    <polygon points="234.54545454545456,128 181.2727272727273,220.27107029412383 74.72727272727275,220.27107029412383 21.45454545454544,128 74.72727272727266,35.72892970587618 181.2727272727272,35.72892970587611" fill="none" stroke="black" stroke-width="2"/>
    <polygon points="234.54545454545456,128 181.27272727272728,220.27107029412383 74.72727272727275,220.27107029412383 21.454545454545453,128 74.72727272727268,35.72892970587618 181.2727272727272,35.728929705876126" fill="hsl(235.3846153846154, 70%, 50%)" stroke="black" stroke-width="2"/>
    <polygon points="223.8181818181818,128 175.9090909090909,210.98097959898166 80.09090909090912,210.98097959898166 32.18181818181819,128 80.09090909090905,45.01902040101835 175.90909090909085,45.019020401018295" fill="none" stroke="black" stroke-width="2"/>
    <polygon points="223.8181818181818,128 175.9090909090909,210.98097959898166 80.09090909090912,210.98097959898166 32.18181818181819,128 80.09090909090905,45.01902040101835 175.90909090909085,45.019020401018295" fill="hsl(69.23076923076923, 80%, 60%)" stroke="black" stroke-width="2"/>
    <polygon points="213.0909090909091,128 170.54545454545456,201.6908889038395 85.45454545454547,201.6908889038395 42.90909090909091,128 85.45454545454541,54.30911109616051 170.5454545454545,54.309111096160464" fill="none" stroke="black" stroke-width="2"/>
    <polygon points="213.0909090909091,128 170.54545454545456,201.6908889038395 85.45454545454547,201.6908889038395 42.90909090909091,128 85.45454545454541,54.30911109616051 170.5454545454545,54.309111096160464" fill="hsl(235.3846153846154, 70%, 50%)" stroke="black" stroke-width="2"/>
    <polygon points="202.36363636363637,128 165.1818181818182,192.40079820869735 90.81818181818183,192.40079820869738 53.636363636363626,128 90.81818181818178,63.59920179130266 165.18181818181813,63.59920179130262" fill="none" stroke="black" stroke-width="2"/>
    <polygon points="202.36363636363637,128 165.1818181818182,192.40079820869735 90.81818181818183,192.40079820869738 53.636363636363626,128 90.81818181818178,63.59920179130266 165.18181818181813,63.59920179130262" fill="hsl(83.07692307692308, 80%, 60%)" stroke="black" stroke-width="2"/>
    <polygon points="191.63636363636365,128 159.81818181818184,183.11070751355518 96.18181818181819,183.1107075135552 64.36363636363635,128 96.18181818181814,72.88929248644482 159.81818181818178,72.88929248644479" fill="none" stroke="black" stroke-width="2"/>
    <polygon points="191.63636363636363,128 159.8181818181818,183.11070751355518 96.18181818181819,183.11070751355518 64.36363636363636,128 96.18181818181816,72.88929248644482 159.81818181818178,72.88929248644479" fill="hsl(55.38461538461539, 70%, 50%)" stroke="black" stroke-width="2"/>
    <polygon points="180.9090909090909,128 154.45454545454547,173.82061681841304 101.54545454545456,173.82061681841304 75.0909090909091,128 101.54545454545452,82.17938318158699 154.4545454545454,82.17938318158696" fill="none" stroke="black" stroke-width="2"/>
    <polygon points="180.9090909090909,128 154.45454545454547,173.82061681841301 101.54545454545456,173.82061681841304 75.0909090909091,128 101.54545454545452,82.17938318158699 154.4545454545454,82.17938318158696" fill="hsl(180, 80%, 60%)" stroke="black" stroke-width="2"/>
    <polygon points="170.1818181818182,128 149.0909090909091,164.53052612327087 106.90909090909092,164.53052612327087 85.81818181818181,128 106.90909090909089,91.46947387672914 149.09090909090907,91.46947387672913" fill="none" stroke="black" stroke-width="2"/>
    <polygon points="170.1818181818182,128 149.0909090909091,164.53052612327087 106.90909090909092,164.53052612327087 85.81818181818181,128 106.90909090909089,91.46947387672913 149.09090909090907,91.46947387672911" fill="hsl(221.53846153846155, 70%, 50%)" stroke="black" stroke-width="2"/>
    <polygon points="159.45454545454547,128 143.72727272727275,155.2404354281287 112.27272727272728,155.2404354281287 96.54545454545453,128 112.27272727272725,100.7595645718713 143.72727272727272,100.75956457187128" fill="none" stroke="black" stroke-width="2"/>
    <polygon points="159.45454545454547,128 143.72727272727275,155.2404354281287 112.27272727272728,155.2404354281287 96.54545454545453,128 112.27272727272725,100.7595645718713 143.72727272727272,100.75956457187127" fill="hsl(0, 80%, 60%)" stroke="black" stroke-width="2"/>
    <polygon points="148.72727272727275,128 138.36363636363637,145.95034473298657 117.63636363636364,145.95034473298657 107.27272727272725,128 117.63636363636363,110.04965526701345 138.36363636363635,110.04965526701343" fill="none" stroke="black" stroke-width="2"/>
    <polygon points="148.72727272727275,128 138.36363636363637,145.95034473298654 117.63636363636364,145.95034473298657 107.27272727272727,128 117.63636363636363,110.04965526701345 138.36363636363635,110.04965526701343" fill="hsl(332.3076923076923, 70%, 50%)" stroke="black" stroke-width="2"/>
    <polygon points="138,128 133,136.6602540378444 123,136.6602540378444 118,128 122.99999999999999,119.3397459621556 133,119.3397459621556" fill="none" stroke="black" stroke-width="2"/>
    <circle cx="128" cy="128" r="10" fill="black"/>
  </g>
</svg>