<?xml version="1.0" encoding="UTF-8"?>
<svg xmlns="http://www.w3.org/2000/svg" viewBox="0 0 256 256">
  <g>
    <polygon points="256,128 192,238.85125168440814 64.00000000000003,238.85125168440817 0,128.00000000000003 63.99999999999994,17.148748315591874 191.99999999999991,17.148748315591803" fill="hsl(0, 70%, 50%)" stroke="black" stroke-width="2"/>
    <polygon points="232.4,128 180.20000000000002,218.4130521550954 75.80000000000001,218.4130521550954 23.599999999999994,128 75.79999999999995,37.586947844904614 180.19999999999993,37.58694784490456" fill="none" stroke="black" stroke-width="2"/>
    <polygon points="232.4,128 180.20000000000002,218.4130521550954 75.80000000000001,218.4130521550954 23.599999999999994,128 75.79999999999995,37.586947844904614 180.19999999999993,37.58694784490456" fill="hsl(96.92307692307693, 80%, 60%)" stroke="black" stroke-width="2"/>
    <polygon points="208.8,128 168.4,197.97485262578266 87.60000000000002,197.97485262578266 47.19999999999999,128 87.59999999999997,58.025147374217354 168.39999999999995,58.02514737421731" fill="none" stroke="black" stroke-width="2"/>
    <polygon points="208.8,128 168.4,197.97485262578263 87.60000000000002,197.97485262578266 47.2,128 87.59999999999997,58.02514737421737 168.39999999999995,58.025147374217326" fill="hsl(69.23076923076923, 70%, 50%)" stroke="black" stroke-width="2"/>
    <polygon points="185.2,128 156.6,177.53665309646988 99.40000000000002,177.53665309646988 70.80000000000001,128 99.39999999999998,78.46334690353012 156.59999999999997,78.4633469035301" fill="none" stroke="black" stroke-width="2"/>
    <polygon points="185.2,128 156.6,177.53665309646988 99.40000000000002,177.53665309646988 70.80000000000001,128 99.39999999999998,78.46334690353012 156.59999999999997,78.4633469035301" fill="hsl(69.23076923076923, 80%, 60%)" stroke="black" stroke-width="2"/>
    <polygon points="161.6,128 144.8,157.09845356715712 111.20000000000002,157.09845356715712 94.4,128 111.19999999999999,98.90154643284288 144.79999999999998,98.90154643284286" fill="none" stroke="black" stroke-width="2"/>
    <polygon points="161.6,128 144.8,157.09845356715712 111.20000000000002,157.09845356715715 94.4,128 111.19999999999999,98.90154643284288 144.79999999999998,98.90154643284285" fill="hsl(221.53846153846155, 70%, 50%)" stroke="black" stroke-width="2"/>
    <polygon points="138,128 133,136.66025403784437 123,136.66025403784437 118,128 123,119.33974596215562 133,119.33974596215562" fill="none" stroke="black" stroke-width="2"/>
    <circle cx="128" cy="128" r="10" fill="black"/>
  </g>
</svg>