<?xml version="1.0" encoding="UTF-8"?>
<svg xmlns="http://www.w3.org/2000/svg" viewBox="0 0 256 256">
  <g>
    <polygon points="256,128 192,238.85125168440814 64.00000000000003,238.85125168440817 0,128.00000000000003 63.99999999999994,17.148748315591874 191.99999999999991,17.148748315591803" fill="hsl(41.53846153846154, 70%, 50%)" stroke="black" stroke-width="2"/>
    <polygon points="239.14285714285714,128 183.57142857142858,224.25253773489902 72.42857142857144,224.25253773489902 16.85714285714286,128 72.42857142857139,31.747462265100978 183.5714285714285,31.74746226510092" fill="none" stroke="black" stroke-width="2"/>
    <polygon points="239.14285714285714,128 183.57142857142858,224.25253773489902 72.42857142857144,224.25253773489902 16.85714285714286,128 72.42857142857139,31.747462265100978 183.5714285714285,31.74746226510092" fill="hsl(27.692307692307693, 80%, 60%)" stroke="black" stroke-width="2"/>
    <polygon points="222.28571428571428,128 175.14285714285714,209.65382378538993 80.85714285714289,209.65382378538993 33.71428571428572,128 80.85714285714282,46.3461762146101 175.14285714285708,46.34617621461004" fill="none" stroke="black" stroke-width="2"/>
    <polygon points="222.28571428571428,128 175.14285714285714,209.65382378538993 80.85714285714289,209.65382378538993 33.71428571428572,128 80.85714285714282,46.3461762146101 175.14285714285708,46.34617621461004" fill="hsl(69.23076923076923, 70%, 50%)" stroke="black" stroke-width="2"/>
    <polygon points="205.42857142857142,128 166.71428571428572,195.0551098358808 89.2857142857143,195.0551098358808 50.571428571428584,128 89.28571428571425,60.9448901641192 166.71428571428567,60.94489016411916" fill="none" stroke="black" stroke-width="2"/>
    <polygon points="205.42857142857144,128 166.71428571428572,195.0551098358808 89.2857142857143,195.05510983588084 50.57142857142857,128 89.28571428571425,60.94489016411919 166.71428571428567,60.944890164119144" fill="hsl(27.692307692307693, 80%, 60%)" stroke="black" stroke-width="2"/>
    <polygon points="188.57142857142856,128 158.28571428571428,180.4563958863717 97.71428571428572,180.45639588637172 67.42857142857143,128 97.7142857142857,75.5436041136283 158.28571428571425,75.54360411362826" fill="none" stroke="black" stroke-width="2"/>
    <polygon points="188.57142857142856,128 158.28571428571428,180.4563958863717 97.71428571428572,180.45639588637172 67.42857142857143,128 97.7142857142857,75.5436041136283 158.28571428571425,75.54360411362826" fill="hsl(332.3076923076923, 70%, 50%)" stroke="black" stroke-width="2"/>
    <polygon points="171.71428571428572,128 149.85714285714286,165.8576819368626 106.14285714285715,165.8576819368626 84.28571428571429,128 106.14285714285712,90.14231806313741 149.85714285714283,90.14231806313738" fill="none" stroke="black" stroke-width="2"/>
    <polygon points="171.71428571428572,128 149.85714285714286,165.8576819368626 106.14285714285715,165.8576819368626 84.28571428571429,128 106.14285714285712,90.14231806313741 149.85714285714283,90.14231806313738" fill="hsl(13.846153846153847, 80%, 60%)" stroke="black" stroke-width="2"/>
    <polygon points="154.85714285714286,128 141.42857142857142,151.2589679873535 114.57142857142858,151.2589679873535 101.14285714285715,128 114.57142857142856,104.74103201264651 141.42857142857142,104.7410320126465" fill="none" stroke="black" stroke-width="2"/>
    <polygon points="154.85714285714286,128 141.42857142857144,151.2589679873535 114.57142857142857,151.25896798735351 101.14285714285714,128 114.57142857142856,104.74103201264651 141.42857142857142,104.74103201264649" fill="hsl(207.6923076923077, 70%, 50%)" stroke="black" stroke-width="2"/>
    <polygon points="138,128 133,136.6602540378444 123,136.6602540378444 118,128 123,119.33974596215562 133,119.3397459621556" fill="none" stroke="black" stroke-width="2"/>
    <circle cx="128" cy="128" r="10" fill="black"/>
  </g>
</svg>