<?xml version="1.0" encoding="UTF-8"?>
<svg xmlns="http://www.w3.org/2000/svg" viewBox="0 0 256 256">
  <g>
    <polygon points="256,128 192,238.85125168440814 64.00000000000003,238.85125168440817 0,128.00000000000003 63.99999999999994,17.148748315591874 191.99999999999991,17.148748315591803" fill="hsl(69.23076923076923, 70%, 50%)" stroke="black" stroke-width="2"/>
    <polygon points="236.33333333333331,128 182.16666666666669,221.81941874331417 73.83333333333336,221.8194187433142 19.66666666666667,128 73.83333333333329,34.18058125668584 182.1666666666666,34.18058125668577" fill="none" stroke="black" stroke-width="2"/>
    <polygon points="236.33333333333331,128 182.16666666666669,221.81941874331417 73.83333333333336,221.8194187433142 19.66666666666667,128 73.83333333333329,34.18058125668584 182.1666666666666,34.18058125668577" fill="hsl(55.38461538461539, 80%, 60%)" stroke="black" stroke-width="2"/>
    <polygon points="216.66666666666666,128 172.33333333333334,204.78758580222024 83.66666666666669,204.78758580222024 39.33333333333334,128 83.66666666666663,51.21241419777979 172.33333333333326,51.21241419777975" fill="none" stroke="black" stroke-width="2"/>
    <polygon points="216.66666666666666,128 172.33333333333334,204.78758580222024 83.66666666666669,204.78758580222024 39.33333333333334,128 83.66666666666663,51.21241419777979 172.33333333333326,51.21241419777975" fill="hsl(207.6923076923077, 70%, 50%)" stroke="black" stroke-width="2"/>
    <polygon points="197,128 162.5,187.75575286112627 93.50000000000003,187.75575286112627 59.000000000000014,128 93.49999999999997,68.24424713887376 162.49999999999994,68.24424713887372" fill="none" stroke="black" stroke-width="2"/>
    <polygon points="197,128 162.5,187.75575286112627 93.50000000000001,187.75575286112627 59,128 93.49999999999997,68.24424713887375 162.49999999999994,68.2442471388737" fill="hsl(152.30769230769232, 80%, 60%)" stroke="black" stroke-width="2"/>
    <polygon points="177.33333333333331,128 152.66666666666669,170.7239199200323 103.33333333333334,170.7239199200323 78.66666666666667,128 103.33333333333331,85.2760800799677 152.66666666666663,85.27608007996767" fill="none" stroke="black" stroke-width="2"/>
    <polygon points="177.33333333333331,128 152.66666666666669,170.7239199200323 103.33333333333334,170.7239199200323 78.66666666666667,128 103.33333333333331,85.2760800799677 152.66666666666663,85.27608007996767" fill="hsl(55.38461538461539, 70%, 50%)" stroke="black" stroke-width="2"/>
    <polygon points="157.66666666666666,128 142.83333333333334,153.69208697893833 113.16666666666667,153.69208697893833 98.33333333333334,128 113.16666666666666,102.30791302106167 142.83333333333331,102.30791302106165" fill="none" stroke="black" stroke-width="2"/>
    <polygon points="157.66666666666666,128 142.83333333333334,153.69208697893833 113.16666666666669,153.69208697893833 98.33333333333334,128 113.16666666666666,102.30791302106167 142.83333333333331,102.30791302106165" fill="hsl(332.3076923076923, 80%, 60%)" stroke="black" stroke-width="2"/>
    <polygon points="138,128 133,136.66025403784437 123,136.66025403784437 118.00000000000001,128 123,119.33974596215563 133,119.33974596215562" fill="none" stroke="black" stroke-width="2"/>
    <circle cx="128" cy="128" r="10" fill="black"/>
  </g>
</svg>