<?xml version="1.0" encoding="UTF-8"?>
<svg xmlns="http://www.w3.org/2000/svg" viewBox="0 0 256 256">
  <g>
    <polygon points="256,128 192,238.85125168440814 64.00000000000003,238.85125168440817 0,128.00000000000003 63.99999999999994,17.148748315591874 191.99999999999991,17.148748315591803" fill="hsl(69.23076923076923, 70%, 50%)" stroke="black" stroke-width="2"/>
    <polygon points="242.88888888888889,128 185.44444444444446,227.4966963903455 70.55555555555559,227.4966963903455 13.111111111111114,128 70.55555555555551,28.50330360965451 185.44444444444437,28.503303609654452" fill="none" stroke="black" stroke-width="2"/>
    <polygon points="242.88888888888889,128 185.44444444444446,227.4966963903455 70.55555555555559,227.4966963903455 13.111111111111114,128 70.55555555555551,28.50330360965451 185.44444444444437,28.503303609654452" fill="hsl(55.38461538461539, 80%, 60%)" stroke="black" stroke-width="2"/>
    <polygon points="229.77777777777777,128 178.8888888888889,216.14214109628284 77.11111111111114,216.14214109628287 26.22222222222223,128 77.11111111111107,39.85785890371716 178.8888888888888,39.8578589037171" fill="none" stroke="black" stroke-width="2"/>
    <polygon points="229.77777777777777,128 178.8888888888889,216.14214109628284 77.11111111111114,216.14214109628287 26.22222222222223,128 77.11111111111107,39.85785890371716 178.8888888888888,39.8578589037171" fill="hsl(332.3076923076923, 70%, 50%)" stroke="black" stroke-width="2"/>
    <polygon points="216.66666666666666,128 172.33333333333334,204.78758580222024 83.66666666666669,204.78758580222024 39.33333333333334,128 83.66666666666663,51.21241419777979 172.33333333333326,51.21241419777975" fill="none" stroke="black" stroke-width="2"/>
    <polygon points="216.66666666666669,128 172.33333333333334,204.78758580222024 83.66666666666669,204.78758580222024 39.33333333333333,128 83.66666666666663,51.21241419777978 172.3333333333333,51.21241419777974" fill="hsl(180, 80%, 60%)" stroke="black" stroke-width="2"/>
    <polygon points="203.55555555555554,128 165.77777777777777,193.43303050815757 90.22222222222223,193.43303050815757 52.44444444444444,128 90.22222222222219,62.56696949184243 165.77777777777771,62.566969491842386" fill="none" stroke="black" stroke-width="2"/>
    <polygon points="203.55555555555554,128 165.77777777777777,193.43303050815757 90.22222222222223,193.43303050815757 52.44444444444444,128 90.22222222222219,62.56696949184243 165.77777777777771,62.566969491842386" fill="hsl(83.07692307692308, 70%, 50%)" stroke="black" stroke-width="2"/>
    <polygon points="190.44444444444446,128 159.22222222222223,182.07847521409494 96.7777777777778,182.07847521409496 65.55555555555556,128 96.77777777777774,73.92152478590506 159.22222222222217,73.92152478590504" fill="none" stroke="black" stroke-width="2"/>
    <polygon points="190.44444444444446,128 159.22222222222223,182.07847521409494 96.7777777777778,182.07847521409496 65.55555555555556,128 96.77777777777774,73.92152478590506 159.22222222222217,73.92152478590504" fill="hsl(0, 80%, 60%)" stroke="black" stroke-width="2"/>
    <polygon points="177.33333333333331,128 152.66666666666669,170.7239199200323 103.33333333333334,170.7239199200323 78.66666666666667,128 103.33333333333331,85.2760800799677 152.66666666666663,85.27608007996767" fill="none" stroke="black" stroke-width="2"/>
    <polygon points="177.33333333333334,128 152.66666666666669,170.7239199200323 103.33333333333334,170.7239199200323 78.66666666666666,128 103.33333333333331,85.2760800799677 152.66666666666663,85.27608007996767" fill="hsl(263.0769230769231, 70%, 50%)" stroke="black" stroke-width="2"/>
    <polygon points="164.22222222222223,128 146.11111111111111,159.36936462596967 109.88888888888889,159.36936462596967 91.77777777777777,128 109.88888888888887,96.63063537403033 146.1111111111111,96.6306353740303" fill="none" stroke="black" stroke-width="2"/>
    <polygon points="164.22222222222223,128 146.11111111111111,159.36936462596967 109.88888888888889,159.36936462596967 91.77777777777777,128 109.88888888888887,96.63063537403033 146.1111111111111,96.6306353740303" fill="hsl(193.84615384615387, 80%, 60%)" stroke="black" stroke-width="2"/>
    <polygon points="151.11111111111111,128 139.55555555555557,148.01480933190703 116.44444444444444,148.01480933190703 104.88888888888889,128 116.44444444444443,107.98519066809297 139.55555555555554,107.98519066809295" fill="none" stroke="black" stroke-width="2"/>
    <polygon points="151.11111111111111,128 139.55555555555557,148.01480933190703 116.44444444444444,148.01480933190703 104.88888888888889,128 116.44444444444443,107.98519066809297 139.55555555555554,107.98519066809297" fill="hsl(180, 70%, 50%)" stroke="black" stroke-width="2"/>
    <polygon points="138,128 133,136.6602540378444 123,136.6602540378444 118,128 123,119.33974596215562 133,119.3397459621556" fill="none" stroke="black" stroke-width="2"/>
    <circle cx="128" cy="128" r="10" fill="black"/>
  </g>
</svg>