<?xml version="1.0" encoding="UTF-8"?>
<svg xmlns="http://www.w3.org/2000/svg" viewBox="0 0 256 256">
  <g>
    <polygon points="256,128 192,238.85125168440814 64.00000000000003,238.85125168440817 0,128.00000000000003 63.99999999999994,17.148748315591874 191.99999999999991,17.148748315591803" fill="hsl(69.23076923076923, 70%, 50%)" stroke="black" stroke-width="2"/>
    <polygon points="226.5,128 177.25,213.30350227276722 78.75000000000003,213.30350227276722 29.5,128 78.74999999999996,42.69649772723281 177.24999999999994,42.69649772723275" fill="none" stroke="black" stroke-width="2"/>
    <polygon points="226.5,128 177.25,213.30350227276722 78.75000000000003,213.30350227276722 29.5,128 78.74999999999996,42.69649772723281 177.24999999999994,42.69649772723275" fill="hsl(124.61538461538461, 80%, 60%)" stroke="black" stroke-width="2"/>
    <polygon points="197,128 162.5,187.75575286112627 93.50000000000001,187.75575286112627 59,128 93.49999999999997,68.24424713887375 162.49999999999994,68.2442471388737" fill="none" stroke="black" stroke-width="2"/>
    <polygon points="197,128 162.5,187.75575286112627 93.50000000000001,187.75575286112627 59,128 93.49999999999997,68.24424713887375 162.49999999999994,68.2442471388737" fill="hsl(96.92307692307693, 70%, 50%)" stroke="black" stroke-width="2"/>
    <polygon points="167.5,128 147.75,162.20800344948532 108.25,162.20800344948532 88.5,128 108.24999999999999,93.79199655051468 147.74999999999997,93.79199655051465" fill="none" stroke="black" stroke-width="2"/>
    <polygon points="167.5,128 147.75,162.20800344948532 108.25,162.20800344948532 88.5,128 108.24999999999999,93.79199655051468 147.74999999999997,93.79199655051465" fill="hsl(263.0769230769231, 80%, 60%)" stroke="black" stroke-width="2"/>
    <polygon points="138,128 133,136.6602540378444 123,136.6602540378444 118,128 123,119.33974596215562 133,119.3397459621556" fill="none" stroke="black" stroke-width="2"/>
    <circle cx="128" cy="128" r="10" fill="black"/>
  </g>
</svg>