<?xml version="1.0" encoding="UTF-8"?>
<svg xmlns="http://www.w3.org/2000/svg" viewBox="0 0 256 256">
  <g>
    <polygon points="256,128 192,238.85125168440814 64.00000000000003,238.85125168440817 0,128.00000000000003 63.99999999999994,17.148748315591874 191.99999999999991,17.148748315591803" fill="hsl(83.07692307692308, 70%, 50%)" stroke="black" stroke-width="2"/>
    <polygon points="244.2,128 186.10000000000002,228.63215191975178 69.90000000000003,228.63215191975178 11.799999999999997,128.00000000000003 69.89999999999995,27.36784808024825 186.0999999999999,27.36784808024818" fill="none" stroke="black" stroke-width="2"/>
    <polygon points="244.2,128 186.10000000000002,228.63215191975178 69.90000000000003,228.63215191975178 11.799999999999997,128.00000000000003 69.89999999999995,27.36784808024825 186.0999999999999,27.36784808024818" fill="hsl(166.15384615384616, 80%, 60%)" stroke="black" stroke-width="2"/>
    <polygon points="232.4,128 180.20000000000002,218.4130521550954 75.80000000000001,218.4130521550954 23.599999999999994,128 75.79999999999995,37.586947844904614 180.19999999999993,37.58694784490456" fill="none" stroke="black" stroke-width="2"/>
    <polygon points="232.4,128 180.20000000000002,218.4130521550954 75.80000000000001,218.4130521550954 23.599999999999994,128 75.79999999999995,37.586947844904614 180.19999999999993,37.58694784490456" fill="hsl(346.1538461538462, 70%, 50%)" stroke="black" stroke-width="2"/>
    <polygon points="220.60000000000002,128 174.3,208.19395239043902 81.70000000000002,208.19395239043905 35.39999999999999,128 81.69999999999996,47.80604760956099 174.29999999999995,47.806047609560935" fill="none" stroke="black" stroke-width="2"/>
    <polygon points="220.6,128 174.3,208.193952390439 81.70000000000002,208.19395239043902 35.400000000000006,128 81.69999999999996,47.806047609561006 174.29999999999993,47.80604760956095" fill="hsl(332.3076923076923, 80%, 60%)" stroke="black" stroke-width="2"/>
    <polygon points="208.8,128 168.4,197.97485262578263 87.60000000000002,197.97485262578266 47.2,128 87.59999999999997,58.02514737421737 168.39999999999995,58.025147374217326" fill="none" stroke="black" stroke-width="2"/>
    <polygon points="208.8,128 168.4,197.97485262578263 87.60000000000002,197.97485262578266 47.2,128 87.59999999999997,58.02514737421737 168.39999999999995,58.025147374217326" fill="hsl(180, 70%, 50%)" stroke="black" stroke-width="2"/>
    <polygon points="197,128 162.5,187.75575286112627 93.50000000000001,187.75575286112627 59,128 93.49999999999997,68.24424713887375 162.49999999999994,68.2442471388737" fill="none" stroke="black" stroke-width="2"/>
    <polygon points="197,128 162.5,187.75575286112627 93.50000000000001,187.75575286112627 59,128 93.49999999999997,68.24424713887375 162.49999999999994,68.2442471388737" fill="hsl(83.07692307692308, 80%, 60%)" stroke="black" stroke-width="2"/>
    <polygon points="185.2,128 156.60000000000002,177.53665309646988 99.4,177.5366530964699 70.8,128 99.39999999999998,78.46334690353012 156.59999999999997,78.4633469035301" fill="none" stroke="black" stroke-width="2"/>
    <polygon points="185.2,128 156.6,177.53665309646988 99.40000000000002,177.53665309646988 70.80000000000001,128 99.39999999999998,78.46334690353012 156.59999999999997,78.4633469035301" fill="hsl(0, 70%, 50%)" stroke="black" stroke-width="2"/>
    <polygon points="173.39999999999998,128 150.7,167.3175533318135 105.30000000000001,167.3175533318135 82.60000000000001,128 105.29999999999998,88.6824466681865 150.69999999999996,88.68244666818647" fill="none" stroke="black" stroke-width="2"/>
    <polygon points="173.39999999999998,128 150.7,167.3175533318135 105.30000000000001,167.3175533318135 82.60000000000001,128 105.29999999999998,88.6824466681865 150.69999999999996,88.68244666818647" fill="hsl(263.0769230769231, 80%, 60%)" stroke="black" stroke-width="2"/>
    <polygon points="161.6,128 144.8,157.09845356715712 111.20000000000002,157.09845356715715 94.4,128 111.19999999999999,98.90154643284288 144.79999999999998,98.90154643284285" fill="none" stroke="black" stroke-width="2"/>
    <polygon points="161.6,128 144.8,157.09845356715712 111.20000000000002,157.09845356715715 94.4,128 111.19999999999999,98.90154643284288 144.79999999999998,98.90154643284285" fill="hsl(221.53846153846155, 70%, 50%)" stroke="black" stroke-width="2"/>
    <polygon points="149.79999999999998,128 138.9,146.87935380250076 117.10000000000001,146.87935380250076 106.2,128 117.1,109.12064619749924 138.89999999999998,109.12064619749924" fill="none" stroke="black" stroke-width="2"/>
    <polygon points="149.8,128 138.9,146.87935380250076 117.10000000000001,146.87935380250076 106.2,128 117.1,109.12064619749924 138.89999999999998,109.12064619749923" fill="hsl(166.15384615384616, 80%, 60%)" stroke="black" stroke-width="2"/>
    <polygon points="138,128 133,136.6602540378444 123,136.6602540378444 118,128 123,119.33974596215562 133,119.33974596215562" fill="none" stroke="black" stroke-width="2"/>
    <circle cx="128" cy="128" r="10" fill="black"/>
  </g>
</svg>